<svg data-v-423bf9ae="" xmlns="http://www.w3.org/2000/svg" viewBox="0 0 508 90" class="iconLeft"><!----><!----><!----><g data-v-423bf9ae="" id="7e19fd2c-71af-4b34-9be2-a76bf80a49b0" fill="#EAE8E7" transform="matrix(5.667478084564209,0,0,5.667478084564209,103.65243530273438,14.641364097595215)"><path d="M7.04 9.70L7.04 9.70L2.06 9.70L2.06 0.81C2.06 0.56 1.85 0.35 1.60 0.35C1.33 0.35 1.12 0.56 1.12 0.81L1.12 10.18C1.12 10.43 1.33 10.64 1.60 10.64L7.04 10.64C7.31 10.64 7.50 10.43 7.50 10.18C7.50 9.91 7.31 9.70 7.04 9.70ZM3.00 0.81L3.00 0.81L3.00 8.30C3.00 8.55 3.21 8.76 3.46 8.76L7.04 8.76C7.31 8.76 7.50 8.55 7.50 8.30C7.50 8.04 7.31 7.83 7.04 7.83L3.93 7.83L3.93 0.81C3.93 0.56 3.72 0.35 3.46 0.35C3.21 0.35 3.00 0.56 3.00 0.81ZM12.04 10.18L12.04 10.18L12.04 0.81C12.04 0.56 11.83 0.35 11.58 0.35C11.31 0.35 11.10 0.56 11.10 0.81L11.10 10.18C11.10 10.43 11.31 10.64 11.58 10.64C11.83 10.64 12.04 10.43 12.04 10.18ZM10.16 10.18L10.16 10.18L10.16 0.81C10.16 0.56 9.95 0.35 9.70 0.35C9.44 0.35 9.23 0.56 9.23 0.81L9.23 10.18C9.23 10.43 9.44 10.64 9.70 10.64C9.95 10.64 10.16 10.43 10.16 10.18ZM15.22 10.18L15.22 10.18L15.22 0.81C15.22 0.56 15.02 0.36 14.76 0.36C14.50 0.36 14.29 0.56 14.29 0.81L14.29 10.18C14.29 10.43 14.50 10.65 14.76 10.65C15.02 10.65 15.22 10.43 15.22 10.18ZM22.86 10.18L22.86 10.18L22.86 0.81C22.86 0.56 22.65 0.36 22.39 0.36C22.13 0.36 21.92 0.56 21.92 0.81L21.92 10.18C21.92 10.43 22.13 10.65 22.39 10.65C22.65 10.65 22.86 10.43 22.86 10.18ZM21.08 9.91L21.08 9.91L17.01 4.09C16.87 3.86 16.56 3.81 16.37 3.98C16.23 4.06 16.17 4.20 16.17 4.35L16.17 10.18C16.17 10.43 16.37 10.64 16.62 10.64C16.88 10.64 17.09 10.43 17.09 10.18L17.09 5.84L20.31 10.44C20.47 10.65 20.75 10.71 20.97 10.57C21.17 10.40 21.22 10.12 21.08 9.91ZM16.07 1.09L16.07 1.09L20.13 6.92C20.29 7.13 20.57 7.18 20.78 7.03C20.92 6.94 20.99 6.79 20.99 6.64L20.99 0.81C20.99 0.56 20.78 0.36 20.52 0.36C20.27 0.36 20.05 0.56 20.05 0.81L20.05 5.17L16.83 0.56C16.69 0.35 16.39 0.28 16.18 0.45C15.97 0.59 15.92 0.87 16.07 1.09ZM26.05 10.18L26.05 10.18L26.05 0.81C26.05 0.56 25.84 0.35 25.58 0.35C25.33 0.35 25.12 0.56 25.12 0.81L25.12 10.18C25.12 10.43 25.33 10.64 25.58 10.64C25.84 10.64 26.05 10.43 26.05 10.18ZM29.99 9.90L29.99 9.90L27.83 6.83C27.58 6.45 26.99 6.64 26.99 7.11L26.99 10.18C26.99 10.43 27.20 10.64 27.45 10.64C27.72 10.64 27.92 10.43 27.92 10.18L27.92 8.58L29.22 10.44C29.37 10.65 29.65 10.70 29.86 10.56C30.09 10.40 30.13 10.12 29.99 9.90ZM29.22 0.55L29.22 0.55L27.92 2.41L27.92 0.81C27.92 0.56 27.72 0.35 27.45 0.35C27.20 0.35 26.99 0.56 26.99 0.81L26.99 3.86C26.99 4.03 27.05 4.17 27.19 4.27C27.40 4.42 27.69 4.37 27.83 4.16L29.99 1.08C30.13 0.87 30.09 0.59 29.86 0.43C29.65 0.28 29.37 0.34 29.22 0.55ZM31.50 0.55L31.50 0.55L28.24 5.22C28.13 5.39 28.13 5.61 28.24 5.77L31.50 10.44C31.65 10.65 31.93 10.70 32.14 10.56C32.37 10.40 32.41 10.12 32.27 9.90L29.19 5.49L32.27 1.08C32.41 0.87 32.37 0.59 32.14 0.43C31.93 0.28 31.65 0.34 31.50 0.55ZM42.10 10.16L42.10 10.16L42.10 4.24C42.10 3.99 41.89 3.78 41.62 3.78C41.45 3.78 41.31 3.86 41.23 3.99L38.82 7.42L36.44 3.98C36.29 3.77 35.98 3.71 35.77 3.86C35.64 3.95 35.57 4.10 35.57 4.24L35.57 4.24L35.57 10.16C35.57 10.43 35.78 10.64 36.04 10.64C36.32 10.64 36.53 10.43 36.53 10.16L36.53 5.75L38.44 8.51C38.47 8.55 38.51 8.60 38.56 8.64C38.77 8.78 39.07 8.72 39.23 8.51L41.15 5.75L41.15 10.16C41.15 10.43 41.36 10.64 41.62 10.64C41.89 10.64 42.10 10.43 42.10 10.16ZM34.62 10.16L34.62 10.16L34.62 0.67C34.62 0.41 34.41 0.20 34.15 0.20C33.88 0.20 33.67 0.41 33.67 0.67L33.67 10.16C33.67 10.43 33.88 10.64 34.15 10.64C34.41 10.64 34.62 10.43 34.62 10.16ZM44.00 10.16L44.00 10.16L44.00 0.67C44.00 0.41 43.79 0.20 43.51 0.20C43.26 0.20 43.05 0.41 43.05 0.67L43.05 10.16C43.05 10.43 43.26 10.64 43.51 10.64C43.79 10.64 44.00 10.43 44.00 10.16ZM41.41 0.39L41.41 0.39L38.82 4.10L36.26 0.39C36.11 0.18 35.80 0.13 35.59 0.28C35.38 0.43 35.34 0.73 35.48 0.94L38.44 5.18C38.47 5.24 38.51 5.28 38.56 5.31C38.77 5.47 39.07 5.42 39.23 5.19L42.20 0.94C42.34 0.73 42.29 0.43 42.08 0.28C41.86 0.13 41.57 0.18 41.41 0.39ZM48.96 7.84L48.96 7.84L50.32 7.84C50.58 7.84 50.81 7.63 50.81 7.36C50.81 7.29 50.79 7.24 50.76 7.18L50.08 5.50C49.98 5.28 49.71 5.17 49.46 5.26C49.24 5.35 49.13 5.63 49.21 5.87L49.63 6.90L48.96 6.90C48.71 6.90 48.50 7.10 48.50 7.36C48.50 7.63 48.71 7.84 48.96 7.84ZM48.27 10.26L48.27 10.26L48.51 9.72L50.78 9.72L51.00 10.26C51.10 10.51 51.38 10.61 51.62 10.53C51.86 10.42 51.95 10.15 51.87 9.91L51.53 9.10C51.48 8.92 51.30 8.76 51.09 8.76L48.19 8.76L48.19 8.76C48.02 8.76 47.84 8.89 47.75 9.06L47.42 9.91C47.32 10.15 47.43 10.42 47.67 10.53C47.92 10.61 48.19 10.50 48.27 10.26ZM46.27 10.26L46.27 10.26L49.64 1.76L53.02 10.26C53.12 10.50 53.40 10.61 53.63 10.53C53.87 10.42 53.98 10.15 53.89 9.91L50.08 0.36C50.04 0.25 49.95 0.14 49.81 0.10C49.59 0 49.31 0.11 49.21 0.36L45.39 9.91C45.30 10.15 45.43 10.42 45.65 10.53C45.89 10.61 46.16 10.50 46.27 10.26ZM59.33 5.03L59.33 5.03C60.10 5.03 60.75 4.42 60.75 3.64C60.75 2.93 60.19 2.21 59.33 2.21L57.67 2.21C57.05 2.21 57.05 3.15 57.67 3.15L59.33 3.15C59.60 3.15 59.82 3.35 59.82 3.63C59.82 4.17 59.30 4.10 58.87 4.10C58.11 4.10 58.14 4.98 58.87 5.03C59.02 5.04 59.21 5.03 59.33 5.03ZM60.20 9.90L60.20 9.90L58.06 6.83C57.79 6.48 57.20 6.62 57.20 7.13L57.20 10.18C57.20 10.79 58.14 10.79 58.14 10.18L58.14 8.58L59.43 10.44C59.79 10.95 60.55 10.40 60.20 9.90ZM56.27 10.18L56.27 10.18L56.27 1.29L59.49 1.29C60.12 1.29 60.69 1.54 61.11 1.96C62.55 3.42 61.54 5.96 59.49 5.96C59.14 5.96 58.86 6.37 59.14 6.73L61.73 10.44C62.06 10.95 62.83 10.40 62.48 9.90L60.31 6.79C60.87 6.65 61.38 6.34 61.78 5.94C63.80 3.86 62.36 0.35 59.49 0.35L55.80 0.35C55.55 0.35 55.33 0.56 55.33 0.81L55.33 10.18C55.33 10.79 56.27 10.79 56.27 10.18ZM65.00 10.18L65.00 10.18L65.00 0.81C65.00 0.56 64.79 0.35 64.53 0.35C64.27 0.35 64.06 0.56 64.06 0.81L64.06 10.18C64.06 10.43 64.27 10.64 64.53 10.64C64.79 10.64 65.00 10.43 65.00 10.18ZM68.94 9.90L68.94 9.90L66.78 6.83C66.53 6.45 65.94 6.64 65.94 7.11L65.94 10.18C65.94 10.43 66.15 10.64 66.40 10.64C66.67 10.64 66.86 10.43 66.86 10.18L66.86 8.58L68.17 10.44C68.32 10.65 68.60 10.70 68.81 10.56C69.03 10.40 69.08 10.12 68.94 9.90ZM68.17 0.55L68.17 0.55L66.86 2.41L66.86 0.81C66.86 0.56 66.67 0.35 66.40 0.35C66.15 0.35 65.94 0.56 65.94 0.81L65.94 3.86C65.94 4.03 66.00 4.17 66.14 4.27C66.35 4.42 66.64 4.37 66.78 4.16L68.94 1.08C69.08 0.87 69.03 0.59 68.81 0.43C68.60 0.28 68.32 0.34 68.17 0.55ZM70.45 0.55L70.45 0.55L67.19 5.22C67.07 5.39 67.07 5.61 67.19 5.77L70.45 10.44C70.60 10.65 70.88 10.70 71.09 10.56C71.32 10.40 71.36 10.12 71.22 9.90L68.14 5.49L71.22 1.08C71.36 0.87 71.32 0.59 71.09 0.43C70.88 0.28 70.60 0.34 70.45 0.55Z"></path></g><!----><g data-v-423bf9ae="" id="580c3dd4-4897-4c4a-9aba-d7e34f36b3a9" transform="matrix(2.8125,0,0,2.8125,0,0)" stroke="none" fill="#EAE8E7"><path d="M31 1v30H1V1h30m1-1H0v32h32V0z"></path><path d="M24.12 1v24.608L7.88 9.368V1h16.24m1-1H6.88v9.783l18.24 18.239V0z"></path></g><!----></svg>